# xmcd CD database file
#
# Track frame offsets:
#	150
#	18044
#	29296
#	41735
#	52460
#	60536
#	75759
#	92779
#	108945
#	116038
#	130086
#	145807
#	160488
#
# Disc length: 2448 seconds
#
# Revision: 0
# Processed by: cddbd v1.5.2PL0 Copyright (c) Steve Scherf et al.
# Submitted via: CDex 1.70beta2
#
DISCID=a7098e0d
DTITLE=El Ruso y su Banda - A las cinco de la manana
DYEAR=1900
DGENRE=Salsa
TTITLE0=Hijo de chango
TTITLE1=Que les sirva el traje
TTITLE2=A las cinco de la manana
TTITLE3=La pollera colora
TTITLE4=Me tiene sin cuidado
TTITLE5=Immenso amor
TTITLE6=Charanguero y qué
TTITLE7=El cafeta
TTITLE8=Brinca
TTITLE9=Maria-Cristina
TTITLE10=La cucaracha
TTITLE11=A las cinco de la manana (tiempo Merengue)
TTITLE12=Che commandante
EXTD=
EXTT0=
EXTT1=
EXTT2=
EXTT3=
EXTT4=
EXTT5=
EXTT6=
EXTT7=
EXTT8=
EXTT9=
EXTT10=
EXTT11=
EXTT12=
PLAYORDER=
